<svg xmlns="http://www.w3.org/2000/svg" viewBox="0 0 64 64" role="img" aria-label="devtu tools favicon">
  <defs>
    <linearGradient id="sky" x1="0" x2="0" y1="0" y2="1">
      <stop offset="0%" stop-color="#f7fcff"/>
      <stop offset="100%" stop-color="#d7eaf7"/>
    </linearGradient>
    <linearGradient id="panel" x1="0" x2="1" y1="0" y2="1">
      <stop offset="0%" stop-color="#4ea6d8"/>
      <stop offset="100%" stop-color="#185f8a"/>
    </linearGradient>
  </defs>
  <rect x="4" y="4" width="56" height="56" rx="12" fill="url(#sky)" stroke="#2e668d" stroke-width="2.5"/>
  <path d="M16 38c5 0 7-4 7-10 0-3-1-6-2-8h7l1 4c2-3 5-5 9-5 7 0 13 5 13 13 0 4-1 7-3 9H16z" fill="url(#panel)"/>
  <path d="M15 41h34v5c0 2-2 4-4 4H19c-2 0-4-2-4-4v-5z" fill="#f4d16b"/>
  <path d="M25 16h14v10H25z" fill="#ffffff" opacity=".78"/>
  <path d="M28 19h8v4h-8z" fill="#4ea6d8"/>
  <circle cx="18" cy="20" r="4" fill="#ffd35a"/>
  <circle cx="46" cy="18" r="3" fill="#7de08c"/>
</svg>
